<svg width="86" height="214" viewBox="0 0 86 214" fill="none" xmlns="http://www.w3.org/2000/svg">
	<path d="M85 168.793C85 180.718 80.5547 191.894 72.4903 200.271C64.5675 208.495 54.1191 213 43.006 213C42.8053 213 42.6047 213 42.4041 212.996C40.626 212.967 38.8675 212.826 37.1288 212.565C28.2461 211.248 19.9928 206.959 13.4823 200.172C5.70109 192.064 1.27155 181.298 1.01192 169.865C0.661805 154.371 8.04568 139.849 20.3823 131.538V24.8095C20.3823 13.8282 27.479 4.56108 37.1012 1.82402C38.9816 1.28571 40.9603 1 43.002 1C55.4724 1 65.6218 11.6791 65.6218 24.8095V131.538C77.6161 139.629 85 153.737 85 168.793Z" fill="#E9F5FF" stroke="black" stroke-width="2" />
	<path d="M37.6382 201.565L37.6403 201.565C39.2428 201.825 40.8735 201.974 42.5236 201.996C42.6768 202 42.8276 202 42.9664 202H42.9732C51.7158 202 59.9461 198.659 66.1663 192.567C72.5061 186.364 76 178.076 76 169.242C76 157.632 69.717 146.787 59.6113 140.925L59.6109 140.925C57.0536 139.444 55.4617 136.69 55.4617 133.756V25.3777C55.4617 18.5466 49.8675 13 43.0024 13C40.9665 13 39.0395 13.4852 37.3377 14.3544C33.3093 16.4033 30.5389 20.573 30.5389 25.3777V133.756C30.5389 136.69 28.9471 139.444 26.3897 140.925L26.3893 140.925C16.0048 146.949 9.72537 158.103 10.0092 170.043L10.0092 170.043C10.2115 178.504 13.7024 186.478 19.8205 192.487C24.7525 197.335 30.9516 200.468 37.6382 201.565Z" fill="#FF6E6E" stroke="black" stroke-width="2" />
	<path fill-rule="evenodd" clip-rule="evenodd" d="M48.5 15.5001L50.5 54.5001L48 88.5001C48 88.5001 46.5 130 48 135.5C49.0681 139.417 51.911 142.826 55.987 147.714C57.635 149.691 59.4846 151.909 61.5 154.5C68.5 163.5 71 177 61.5 185.5C56.453 190.016 45.6199 192.556 36.4982 194.695C33.1292 195.485 29.9937 196.22 27.4693 196.98C30.6759 198.764 34.1639 199.982 37.8001 200.578C39.3591 200.83 40.9431 200.975 42.5439 200.996C42.6856 201 42.8273 201 42.9732 201C51.4562 201 59.4347 197.761 65.4666 191.852C71.6152 185.837 75 177.806 75 169.242C75 157.992 68.9098 147.475 59.1096 141.79C56.2458 140.131 54.4617 137.049 54.4617 133.756V25.3778C54.4617 21.0979 52.0685 17.3612 48.5404 15.4192L48.5 15.5001Z" fill="#CA4A4A" />
</svg>
