<svg width="512" height="512" viewBox="0 0 512 512" fill="none" xmlns="http://www.w3.org/2000/svg">
	<path d="M323.94 122.634C320.565 120.16 316.362 119.09 312.215 119.649C308.068 120.208 304.299 122.354 301.7 125.634L324.19 93.764C326.789 90.0707 327.832 85.5041 327.094 81.0489C326.357 76.5936 323.899 72.6065 320.249 69.9472C316.599 67.2879 312.05 66.1694 307.583 66.8329C303.116 67.4964 299.089 69.8887 296.37 73.494L286 87.254C288.095 83.1582 288.586 78.4284 287.378 73.9895C286.17 69.5506 283.35 65.7219 279.469 63.252C275.588 60.7821 270.925 59.8487 266.393 60.6344C261.86 61.42 257.783 63.8681 254.96 67.5L128.97 219.964L128.95 219.944C130.64 205.354 124.88 163.904 115.87 144.684C109.31 130.694 87.2 114.674 77.32 129.744C74.4 134.204 76.28 141.074 78.74 151.684L82.53 175.834C84.1225 185.964 83.6977 196.309 81.28 206.274L76.44 226.254C73.13 240.524 85.22 314.564 89.47 339.544C89.9099 342.144 89.7999 344.806 89.1471 347.361C88.4943 349.915 87.3132 352.304 85.68 354.374L61.11 400.044L200.75 373.574L327.99 144.534C330.236 141.056 331.068 136.851 330.315 132.78C329.562 128.708 327.282 125.079 323.94 122.634V122.634Z" fill="#FFD8B7" />
	<path d="M282.65 65.824C280.802 63.958 278.577 62.508 276.124 61.571C273.671 60.634 271.046 60.2315 268.424 60.3906C265.803 60.5496 263.246 61.2664 260.924 62.4932C258.602 63.7199 256.569 65.4283 254.96 67.504L129.09 220.477C130.997 233.563 131.766 245.707 131 252.324L274.96 77.5C277.714 73.9447 281.679 71.5248 286.1 70.7C285.222 68.8985 284.057 67.2517 282.65 65.824V65.824Z" fill="#EAC3A7" />
	<path d="M109.47 349.544C105.22 324.564 93.13 250.524 96.44 236.254L101.28 216.274C103.698 206.309 104.122 195.964 102.53 185.834L98.74 161.684C96.28 151.074 94.4 144.204 97.32 139.744C98.4045 137.921 99.9382 136.405 101.775 135.343C103.611 134.281 105.69 133.708 107.811 133.677C98.368 124.36 84.562 118.698 77.32 129.744C74.4 134.204 76.28 141.074 78.74 151.684L82.53 175.834C84.1225 185.964 83.6977 196.309 81.28 206.274L76.44 226.254C73.13 240.524 85.22 314.564 89.47 339.544C89.9099 342.144 89.7999 344.806 89.1471 347.361C88.4943 349.915 87.3132 352.304 85.68 354.374L61.11 400.044L89.372 394.687L105.68 364.374C107.313 362.304 108.494 359.915 109.147 357.361C109.8 354.806 109.91 352.144 109.47 349.544V349.544Z" fill="#EAC3A7" />
	<path d="M410.83 181.424C409.562 179.542 407.933 177.93 406.038 176.681C404.143 175.432 402.02 174.571 399.79 174.147C397.561 173.723 395.269 173.745 393.048 174.211C390.827 174.677 388.721 175.579 386.85 176.864L372.63 186.624C375.918 183.408 377.889 179.081 378.158 174.489C378.427 169.897 376.974 165.37 374.083 161.792C371.192 158.214 367.072 155.842 362.526 155.14C357.98 154.437 353.336 155.455 349.5 157.994L227.07 239.394C219.18 244.634 208.85 249.654 198.57 253.974C191.64 256.874 186.42 259.274 181.79 262.304C188.01 248.884 195.55 207.904 193.12 186.874C191.768 177.775 187.518 169.355 181 162.864C175.19 157.384 168.06 155.114 161.32 160.424C157.13 163.724 156.73 170.834 155.69 181.684L153.21 196.394H153.2L151.62 205.774C149.91 215.89 146.22 225.568 140.76 234.254L129.83 251.644C122.16 264.124 110.1 338.204 106.19 363.214C105.785 365.817 104.836 368.305 103.406 370.517C101.976 372.729 100.097 374.616 97.89 376.054L61.11 400.044L58.99 401.424L134.25 497.704L200.62 442.744C202.54 441.144 204.35 439.424 206.13 437.674C210.678 433.2 216.149 429.773 222.16 427.634C237.8 422.064 266.17 403.624 301.67 368.404L371.51 305.844C375.859 302.076 378.81 296.952 379.887 291.299C380.963 285.647 380.101 279.796 377.44 274.694L374.87 269.774L394.27 254.284C396.898 252.186 398.809 249.323 399.74 246.092C400.67 242.86 400.573 239.419 399.463 236.245C398.353 233.071 396.285 230.32 393.543 228.372C390.802 226.425 387.523 225.377 384.16 225.374C381.501 225.37 378.883 226.027 376.54 227.284L406.79 204.944C410.366 202.301 412.783 198.378 413.535 193.996C414.288 189.613 413.319 185.109 410.83 181.424V181.424Z" fill="#F6E4D5" />
	<path d="M181 162.864C175.19 157.384 168.06 155.114 161.32 160.424C157.13 163.724 156.73 170.834 155.69 181.684L153.21 196.394H153.2L151.62 205.774C149.91 215.89 146.22 225.568 140.76 234.254L129.83 251.644C122.16 264.124 110.1 338.204 106.19 363.214C105.785 365.817 104.836 368.305 103.406 370.517C101.976 372.729 100.097 374.616 97.89 376.054L61.11 400.044L58.99 401.424L72.329 418.489L81.11 410.044L117.89 386.054C120.097 384.616 121.976 382.729 123.406 380.517C124.836 378.305 125.785 375.817 126.19 373.214C130.1 348.204 142.16 274.124 149.83 261.644L160.76 244.254C166.22 235.568 169.91 225.89 171.62 215.774L173.2 206.394H173.21L175.69 191.684C176.73 180.834 177.13 173.724 181.32 170.424C182.574 169.419 183.988 168.63 185.502 168.091C184.174 166.207 182.666 164.457 181 162.864V162.864Z" fill="#E2CCBC" />
	<path d="M369.733 157.853C366.714 155.902 363.19 154.876 359.595 154.901C356.001 154.926 352.492 156.001 349.5 157.994L227.07 239.394C222.245 242.594 195.553 254.953 185.359 259.694C184.527 260.082 183.795 260.656 183.22 261.371C182.644 262.086 182.241 262.924 182.04 263.82C181.528 266.091 180.999 268.269 180.46 270.32C180.172 271.424 180.205 272.586 180.554 273.672C180.903 274.758 181.555 275.722 182.432 276.45C183.309 277.179 184.376 277.643 185.508 277.787C186.639 277.931 187.788 277.75 188.82 277.264C199.759 272.164 214.12 265.831 218.57 263.964C228.85 259.644 239.18 254.624 247.07 249.384L369.5 167.984L369.564 167.941L369.733 157.853Z" fill="#E2CCBC" />
	<path d="M356.638 81.488C357.342 81.8412 358.109 82.0522 358.895 82.109C359.681 82.1657 360.471 82.0671 361.218 81.8188C361.966 81.5705 362.658 81.1774 363.253 80.6618C363.849 80.1462 364.338 79.5183 364.691 78.814L395.691 16.985C396.404 15.5624 396.523 13.9147 396.022 12.4043C395.52 10.894 394.439 9.6448 393.016 8.9315C391.594 8.2182 389.946 8.09925 388.436 8.60081C386.926 9.10238 385.676 10.1834 384.963 11.606L353.963 73.435C353.61 74.1394 353.399 74.9065 353.342 75.6924C353.285 76.4783 353.384 77.2677 353.633 78.0155C353.881 78.7633 354.274 79.4549 354.79 80.0507C355.306 80.6465 355.934 81.1349 356.638 81.488V81.488Z" fill="#344D6B" />
	<path d="M370.323 98.362C370.729 99.0375 371.264 99.6265 371.897 100.095C372.531 100.564 373.25 100.903 374.015 101.094C374.779 101.285 375.574 101.323 376.353 101.206C377.133 101.09 377.882 100.821 378.557 100.415L444.268 60.931C445.615 60.1033 446.581 58.7773 446.956 57.2413C447.331 55.7053 447.084 54.0835 446.27 52.7283C445.455 51.3732 444.139 50.3942 442.606 50.0043C441.074 49.6144 439.45 49.845 438.087 50.646L372.376 90.13C371.012 90.9495 370.03 92.2772 369.645 93.8209C369.26 95.3646 369.504 96.9981 370.323 98.362V98.362Z" fill="#344D6B" />
	<path d="M453.013 110.494H452.949L385.649 111.194C384.058 111.202 382.535 111.842 381.415 112.973C380.296 114.103 379.671 115.633 379.679 117.224C379.687 118.815 380.327 120.338 381.458 121.458C382.588 122.577 384.118 123.202 385.709 123.194H385.773L453.068 122.494C454.659 122.486 456.182 121.846 457.302 120.715C458.421 119.585 459.046 118.055 459.038 116.464C459.03 114.873 458.39 113.35 457.259 112.23C456.129 111.111 454.599 110.486 453.008 110.494H453.013Z" fill="#344D6B" />
	<path d="M400.905 168.254C395.097 167.135 389.081 168.295 384.105 171.494C383.779 167.241 382.347 163.146 379.949 159.618C377.552 156.089 374.274 153.249 370.44 151.379C366.606 149.509 362.349 148.674 358.093 148.957C353.837 149.241 349.728 150.632 346.176 152.994L317.729 171.909L333.029 147.786C335.053 144.651 336.256 141.056 336.526 137.334C336.796 133.612 336.125 129.881 334.575 126.486C333.024 123.092 330.644 120.142 327.654 117.909C324.663 115.676 321.159 114.231 317.464 113.708L329.108 97.208C332.601 92.2833 334.037 86.1908 333.11 80.2246C332.183 74.2583 328.967 68.8884 324.145 65.2554C319.322 61.6224 313.274 60.0125 307.283 60.7677C301.293 61.5229 295.833 64.5837 292.063 69.3C290.403 65.3689 287.744 61.9406 284.348 59.3558C280.953 56.7711 276.941 55.1199 272.71 54.5663C268.478 54.0127 264.176 54.576 260.23 56.2003C256.284 57.8246 252.832 60.4532 250.217 63.825L179.883 154.51C178.903 153.919 177.882 153.4 176.827 152.957C173.683 151.588 170.22 151.12 166.826 151.607C163.431 152.093 160.239 153.515 157.606 155.712C151.67 160.384 150.932 168.22 149.911 179.065L149.737 180.897L147.637 193.319C144.167 196.675 139.128 201.37 135.875 204.298C135.542 204.596 135.214 204.892 134.892 205.187C133.602 185.844 128.6 157.699 121.305 142.14C116.134 131.112 102.567 118.64 89.665 117.724C86.2462 117.424 82.8113 118.082 79.7453 119.624C76.6794 121.166 74.1034 123.531 72.306 126.455C68.496 132.266 69.706 139.217 71.85 148.548C72.241 150.248 72.579 151.965 72.859 153.687L76.6 176.759C78.0778 186.112 77.6862 195.665 75.448 204.866L70.6 224.9C67.236 239.4 77.27 303.583 83.55 340.55C83.8503 342.32 83.7758 344.134 83.3314 345.874C82.8869 347.613 82.0825 349.241 80.97 350.65L56.551 395.85L55.711 396.398C55.0148 396.852 54.4206 397.446 53.966 398.142C53.5113 398.837 53.2062 399.62 53.07 400.44C52.9338 401.26 52.9694 402.099 53.1746 402.905C53.3798 403.71 53.7501 404.464 54.262 405.119L129.522 501.399C130.016 502.031 130.632 502.557 131.333 502.947C132.034 503.337 132.806 503.582 133.604 503.669C133.819 503.692 134.034 503.704 134.25 503.704C135.647 503.703 137.001 503.216 138.077 502.325L204.443 447.363C206.615 445.563 208.643 443.619 210.337 441.953C214.259 438.084 218.984 435.125 224.176 433.284C244.297 426.122 274.846 403.462 305.893 372.668L375.433 310.38C380.823 305.741 384.482 299.413 385.812 292.427C387.143 285.442 386.067 278.211 382.76 271.916L382.475 271.37L398.009 258.97C400.92 256.644 403.2 253.624 404.64 250.187C406.079 246.751 406.632 243.007 406.247 239.301C405.862 235.595 404.552 232.045 402.437 228.977C400.323 225.909 397.471 223.422 394.144 221.744L410.354 209.771C413.989 207.087 416.762 203.402 418.335 199.166C419.908 194.93 420.211 190.328 419.209 185.922C418.206 181.517 415.94 177.499 412.69 174.361C409.439 171.223 405.343 169.101 400.905 168.255V168.254ZM259.7 71.18C261.584 68.7635 264.29 67.1244 267.304 66.5749C270.319 66.0255 273.429 66.6041 276.045 68.2005C278.66 69.7969 280.596 72.2995 281.485 75.2316C282.374 78.1637 282.153 81.3203 280.864 84.1L203.423 194.86C202.966 195.505 202.641 196.234 202.467 197.004C202.292 197.775 202.272 198.573 202.407 199.352C202.542 200.13 202.829 200.875 203.252 201.542C203.675 202.21 204.226 202.787 204.873 203.241C205.52 203.694 206.251 204.016 207.022 204.187C207.794 204.357 208.592 204.374 209.37 204.236C210.148 204.097 210.891 203.807 211.556 203.38C212.222 202.954 212.796 202.4 213.247 201.751L301.16 77.105C302.935 74.7674 305.556 73.2189 308.46 72.792C311.364 72.365 314.32 73.0936 316.693 74.8213C319.066 76.5491 320.667 79.1383 321.152 82.0331C321.637 84.928 320.969 87.8978 319.289 90.305L232.98 212.6C232.504 213.242 232.162 213.973 231.972 214.75C231.783 215.527 231.751 216.333 231.878 217.122C232.004 217.912 232.288 218.668 232.711 219.346C233.134 220.024 233.688 220.611 234.341 221.072C234.994 221.533 235.732 221.859 236.513 222.031C237.294 222.202 238.101 222.216 238.887 222.072C239.673 221.927 240.423 221.627 241.091 221.189C241.76 220.751 242.334 220.183 242.78 219.52L306.328 129.478C307.946 127.372 310.325 125.983 312.954 125.609C315.584 125.235 318.255 125.906 320.396 127.478C322.504 129.028 323.939 131.326 324.407 133.9C324.876 136.475 324.342 139.131 322.915 141.324L293.15 188.254L223.748 234.4C216.973 238.9 207.721 243.63 196.248 248.442C194.785 249.056 193.403 249.649 192.061 250.242C196.93 231.522 201.061 203.321 199.077 186.19C198.206 178.658 194.429 169.565 188.823 162.569L259.7 71.18ZM90.727 357.65C92.7617 354.949 94.2239 351.861 95.0241 348.575C95.8244 345.29 95.9458 341.875 95.381 338.541C85.41 279.852 80.271 236.31 82.274 227.67L87.114 207.69C89.7253 196.956 90.1821 185.811 88.458 174.9L84.542 150.925C84.2607 149.211 83.925 147.507 83.535 145.814C82.195 139.972 81.183 134.804 82.342 133.036C82.9679 131.9 83.9174 130.976 85.0699 130.381C86.2223 129.787 87.5256 129.548 88.814 129.696C95.94 130.202 106.45 138.726 110.44 147.236C118.62 164.682 124.14 203.151 123.125 217.782C119.305 223.133 116.231 228.979 113.988 235.159C113.391 236.657 113.405 238.329 114.027 239.816C114.65 241.303 115.83 242.487 117.316 243.113C118.053 243.403 118.84 243.544 119.632 243.528C120.424 243.512 121.205 243.339 121.929 243.019C122.654 242.699 123.308 242.239 123.854 241.665C124.399 241.091 124.826 240.414 125.108 239.674C129.929 227.092 134.324 221.817 143.662 213.432C141.811 219.642 139.125 225.573 135.678 231.06L124.717 248.507C116.917 261.186 106.049 325.24 100.262 362.294C99.9839 364.064 99.3375 365.756 98.3644 367.261C97.3913 368.766 96.1133 370.049 94.613 371.029L77.539 382.162L90.727 357.65ZM403.227 200.118L272.9 296.376C272.257 296.841 271.712 297.428 271.298 298.104C270.883 298.781 270.607 299.532 270.485 300.316C270.363 301.1 270.397 301.9 270.586 302.671C270.776 303.441 271.116 304.166 271.587 304.805C272.058 305.443 272.651 305.981 273.332 306.388C274.013 306.796 274.768 307.064 275.553 307.178C276.338 307.292 277.138 307.249 277.906 307.051C278.674 306.854 279.396 306.506 280.029 306.028L379.676 232.428C381.85 231.356 384.336 231.095 386.685 231.693C389.035 232.291 391.093 233.708 392.49 235.69C393.995 237.821 394.629 240.447 394.264 243.03C393.898 245.614 392.559 247.96 390.522 249.59L283.8 334.79C282.556 335.783 281.758 337.229 281.58 338.81C281.403 340.392 281.861 341.979 282.853 343.223C283.846 344.466 285.292 345.265 286.874 345.442C288.455 345.62 290.042 345.162 291.286 344.169L372.86 279.048C374.439 282.841 374.779 287.036 373.831 291.034C372.883 295.032 370.695 298.627 367.581 301.307L297.445 364.148C262.29 399.015 234.468 416.883 220.153 421.979C213.315 424.402 207.093 428.299 201.928 433.393C200.337 434.957 198.613 436.612 196.792 438.12L135.178 489.146L67.741 402.879L101.167 381.079C104.076 379.18 106.554 376.691 108.44 373.774C110.327 370.857 111.58 367.576 112.119 364.144C121.306 305.32 130.263 262.397 134.909 254.844L145.839 237.444C151.726 228.095 155.7 217.672 157.532 206.777L161.606 182.682C161.63 182.541 161.649 182.398 161.663 182.255L161.858 180.191C162.515 173.218 163.135 166.632 165.028 165.142C165.981 164.266 167.174 163.692 168.454 163.496C169.734 163.299 171.043 163.487 172.216 164.036C178.816 166.783 186.076 178.215 187.157 187.561C189.375 206.741 182.532 244.712 176.97 258.347C171.507 262.276 166.618 266.949 162.446 272.229C161.945 272.837 161.568 273.538 161.338 274.291C161.108 275.045 161.028 275.836 161.103 276.621C161.179 277.405 161.408 278.167 161.778 278.863C162.148 279.558 162.651 280.174 163.26 280.676C163.868 281.177 164.568 281.553 165.322 281.784C166.075 282.014 166.867 282.094 167.651 282.018C168.436 281.943 169.197 281.713 169.893 281.343C170.589 280.973 171.205 280.47 171.706 279.862C181.048 268.528 187.129 265.277 200.891 259.505C213.061 254.398 222.991 249.313 230.391 244.388L352.818 162.988C354.288 161.997 355.955 161.336 357.704 161.05C359.454 160.765 361.244 160.861 362.953 161.333C365.038 161.898 366.942 162.994 368.478 164.513C370.014 166.033 371.13 167.924 371.718 170.003C372.306 172.082 372.345 174.278 371.831 176.377C371.318 178.476 370.27 180.406 368.789 181.979L250.961 268.8C250.305 269.258 249.748 269.842 249.321 270.519C248.894 271.196 248.607 271.951 248.477 272.74C248.346 273.529 248.375 274.337 248.561 275.115C248.747 275.893 249.086 276.625 249.56 277.27C250.033 277.915 250.631 278.459 251.317 278.869C252.004 279.28 252.766 279.549 253.558 279.66C254.35 279.772 255.156 279.724 255.93 279.52C256.703 279.316 257.428 278.959 258.061 278.47L390.241 181.807C392.671 180.141 395.658 179.497 398.559 180.014C401.459 180.532 404.04 182.169 405.744 184.572C407.447 186.976 408.138 189.953 407.666 192.861C407.194 195.769 405.598 198.375 403.221 200.116L403.227 200.118Z" fill="#344D6B" />
</svg>
