<svg width="487" height="330" viewBox="0 0 487 330" fill="none" xmlns="http://www.w3.org/2000/svg">
	<path d="M486.404 239.919V295.299C486.404 314.107 436.249 329.781 374.6 329.781C312.951 329.781 263.841 314.63 263.841 295.822V289.553L262.796 245.667H263.318C271.677 261.863 317.653 274.402 373.032 274.402C428.411 274.402 485.359 258.729 485.359 239.92H486.404V239.919Z" fill="#E2A63B" />
	<path d="M371.465 34.074V88.931H370.42C370.42 108.262 318.698 123.413 257.571 123.413C234.061 123.935 210.028 121.323 187.04 115.576L185.995 116.621C174.501 107.217 161.44 99.903 147.334 95.201V94.156L145.767 36.164C149.424 53.927 198.012 68.033 257.049 68.033C316.086 68.033 370.42 52.882 370.42 34.074H371.465V34.074Z" fill="#F4B844" />
	<path d="M371.465 35.119C371.465 53.927 319.743 69.078 258.094 69.078C196.445 69.078 149.947 54.972 146.29 37.209C146.29 36.687 145.768 35.642 145.768 35.119C145.768 16.311 195.923 0.637 258.095 0.637C320.265 0.115 371.465 15.788 371.465 35.119Z" fill="#FEDB41" />
	<path d="M263.318 245.666L262.796 234.172L261.751 187.152C265.408 204.915 313.996 219.021 373.033 219.021C432.07 219.021 484.315 203.87 485.882 185.584H486.404V239.919H485.359C485.359 258.727 434.681 274.401 373.032 274.401C311.384 274.4 271.678 261.862 263.318 245.666Z" fill="#F4B844" />
	<path d="M188.608 280.67C202.714 267.609 213.686 250.89 219.432 232.605H222.044C233.538 233.65 245.032 234.172 257.571 234.172H262.795V245.666L263.84 289.552H258.093C235.105 290.074 212.64 287.462 190.175 282.238L188.608 280.67Z" fill="#E2A63B" />
	<path d="M263.318 182.972V185.584L264.363 234.172H259.138C246.077 234.172 234.06 233.65 222.567 232.605H219.955C223.612 221.634 225.179 210.14 225.179 198.646C225.179 190.809 224.134 183.495 222.567 176.181H225.179C236.15 177.226 247.122 177.748 259.138 177.748L263.84 180.36C263.318 181.404 263.318 182.449 263.318 182.972Z" fill="#F4B844" />
	<path d="M187.041 115.576C210.029 121.323 234.061 123.935 257.572 123.413C318.698 123.413 370.421 108.262 370.421 88.931H371.466V150.58C314.519 150.58 268.021 164.164 262.274 181.404L257.572 178.792C246.078 178.792 235.107 178.27 224.658 177.225H222.046C217.344 153.192 204.805 131.772 185.997 116.098L187.041 115.576Z" fill="#E2A63B" />
	<path d="M223.09 177.225C217.866 153.192 204.804 131.25 185.996 115.054C174.502 104.605 160.918 97.291 146.29 93.111C135.841 89.454 124.347 87.887 113.376 87.887C51.204 87.363 0.526019 136.996 0.00401899 199.167C-0.517981 261.338 49.114 312.016 111.286 312.538C140.021 312.538 167.188 302.089 188.608 282.758C203.237 269.174 214.208 251.934 219.955 233.125C223.612 222.154 225.179 211.182 225.179 199.688C225.18 192.376 223.09 184.539 223.09 177.225Z" fill="#FEDB41" />
	<path d="M485.882 184.539V185.584C484.315 203.87 433.637 219.021 373.033 219.021C312.429 219.021 265.408 204.915 261.751 187.152V184.54C261.751 183.495 261.751 182.45 262.273 181.405C268.02 164.164 314.518 150.581 371.465 150.581H373.032C434.682 150.58 485.882 165.731 485.882 184.539Z" fill="#FEDB41" />
	<path d="M163.008 252.98C160.918 247.756 155.171 244.621 149.424 246.711C130.616 254.025 109.718 249.323 95.612 235.217C93 233.127 90.91 230.515 89.343 227.38H139.498C145.245 227.38 149.947 222.678 149.947 216.931C149.947 211.184 145.245 206.482 139.498 206.482H81.506C80.984 202.825 80.984 199.69 80.984 196.033H144.723C150.47 196.033 155.172 191.331 155.172 185.584C155.172 179.837 150.47 175.135 144.723 175.135H87.253C89.865 170.955 92.477 167.298 95.612 164.164C109.718 150.058 130.616 145.878 149.424 152.67C154.648 154.76 160.918 152.148 163.008 146.923C165.098 141.699 162.486 135.429 156.739 133.339C130.617 123.413 100.837 129.682 80.984 149.535C73.67 156.849 67.923 165.731 64.266 175.135H50.682C44.935 175.135 40.233 179.837 40.233 185.584C40.233 191.331 44.935 196.033 50.682 196.033H60.086C60.086 199.69 60.086 202.825 60.608 206.482H50.682C44.935 206.482 40.233 211.184 40.233 216.931C40.233 222.678 44.935 227.38 50.682 227.38H65.833C68.968 236.262 74.192 244.098 80.984 250.368C100.837 270.221 130.617 276.49 156.739 266.564C161.963 264.474 165.098 258.727 163.008 252.98Z" fill="#E2A63B" />
</svg>
