<svg width="91" height="92" viewBox="0 0 91 92" fill="none" xmlns="http://www.w3.org/2000/svg">
	<g clip-path="url(#clip0)">
		<path d="M89.6403 27.6026C88.7494 26.9647 87.5597 26.9517 86.6585 27.5635L71.5234 37.6469C70.9414 38.04 70.5346 38.6518 70.4007 39.3469C70.2616 40.0393 70.4058 40.7606 70.7972 41.3491C71.6675 42.6613 72.126 44.1921 72.126 45.7777C72.126 50.188 68.5776 53.7757 64.2158 53.7757C59.854 53.7757 56.3057 50.188 56.3057 45.7777C56.3057 43.1845 57.5725 40.7398 59.6891 39.2349C60.8788 38.3914 61.1671 36.7303 60.3328 35.5249L47.9165 17.5894C46.9381 16.1627 44.5795 16.1627 43.6009 17.5894L31.1848 35.5251C30.3505 36.7305 30.639 38.3916 31.8285 39.2351C33.9451 40.74 35.2119 43.1847 35.2119 45.7778C35.2119 50.1882 31.6636 53.7759 27.3018 53.7759C22.9399 53.7759 19.3916 50.1882 19.3916 45.7778C19.3916 44.1923 19.8499 42.6615 20.7203 41.3492C21.1118 40.7608 21.2559 40.0397 21.1169 39.3471C20.9829 38.6519 20.5762 38.04 19.9942 37.647L4.85906 27.5636C3.95274 26.9519 2.76815 26.9648 1.87729 27.6027C0.986428 28.238 0.574397 29.3602 0.837014 30.4276L11.5588 73.0839C11.8884 74.4274 13.1758 75.3255 14.5508 75.0678C35.2634 71.579 56.2542 71.579 76.9668 75.0678C77.1109 75.0937 77.2604 75.1042 77.3994 75.1042C78.5891 75.1042 79.6601 74.2866 79.959 73.0839L90.6807 30.4276C90.9432 29.36 90.5313 28.2378 89.6403 27.6026V27.6026Z" fill="url(#paintCrown)" />
	</g>
	<defs>
		<linearGradient id="paintCrown" x1="45.7588" y1="75.1117" x2="45.7588" y2="16.5194" gradientUnits="userSpaceOnUse">
			<stop stop-color="#58DC5D" />
			<stop offset="0.0001" stop-color="#4caf50" />
			<stop offset="1" stop-color="#4caf50" />
		</linearGradient>
		<clipPath id="clip0">
			<rect width="90" height="91" fill="white" transform="translate(0.758789 0.315552)" />
		</clipPath>
	</defs>
</svg>
