<svg width="464" height="454" viewBox="0 0 464 454" fill="none" xmlns="http://www.w3.org/2000/svg">
	<g clip-path="url(#clip0)">
		<path d="M380.886 193.788L239.443 359.976L198.479 349.887L364.378 154.964L380.886 193.788Z" fill="#FEC691" />
		<path d="M378.746 167.192L212.846 362.116L105.343 245.844L246.786 79.6558L378.746 167.192Z" fill="#FFEFE0" />
		<path d="M225.075 347.748L174.022 378.623L188.389 390.851C196.292 397.577 208.26 396.614 214.986 388.712L239.443 359.976L225.075 347.748Z" fill="#BFBFBF" />
		<path d="M390.975 152.824L376.607 140.596L366.518 181.56L380.886 193.788L393.114 179.421C399.84 171.518 398.877 159.55 390.975 152.824Z" fill="#BFBFBF" />
		<path d="M225.075 347.748L200.618 376.484C193.892 384.386 181.924 385.349 174.022 378.623L83.0252 301.176C75.1229 294.45 74.1602 282.482 80.8859 274.579L105.343 245.844L225.075 347.748Z" fill="#DBDBDB" />
		<path d="M378.746 167.192L366.518 181.56L246.786 79.6558L259.014 65.288C265.74 57.3857 277.708 56.423 285.611 63.1486L376.607 140.596C384.509 147.321 385.472 159.29 378.746 167.192Z" fill="#DBDBDB" />
		<path d="M394.032 149.232L288.668 59.5567C278.764 51.128 263.851 52.3276 255.422 62.2308L77.2939 271.522C68.8652 281.426 70.0648 296.339 79.9681 304.768L185.332 394.443C195.236 402.872 210.149 401.672 218.578 391.769L396.706 182.478C405.135 172.574 403.935 157.661 394.032 149.232ZM282.553 66.7406L387.918 156.416C393.86 161.473 394.579 170.421 389.522 176.363L380.351 187.139L253.435 79.121L262.606 68.3451C267.664 62.403 276.611 61.6833 282.553 66.7406ZM191.446 387.259L86.0824 297.584C80.1403 292.527 79.4206 283.579 84.4778 277.637L105.878 252.493L116.654 261.664C118.637 263.353 121.614 263.113 123.303 261.129C124.991 259.146 124.752 256.169 122.768 254.48L111.992 245.309L247.321 86.3049L374.237 194.323L238.908 353.327L137.136 266.709C135.152 265.02 132.175 265.26 130.487 267.244C128.798 269.227 129.038 272.204 131.021 273.893L232.794 360.511L211.394 385.655C206.336 391.597 197.389 392.317 191.446 387.259Z" fill="black" />
		<path d="M323.007 125.946L337.375 138.175C339.359 139.863 342.336 139.624 344.024 137.64C345.712 135.656 345.473 132.679 343.489 130.991L329.121 118.762C327.138 117.074 324.161 117.313 322.472 119.297C320.784 121.281 321.023 124.258 323.007 125.946Z" fill="black" />
		<path d="M162.222 314.86C156.927 310.354 148.955 310.995 144.448 316.29C139.942 321.584 140.583 329.557 145.878 334.064C151.173 338.57 159.146 337.928 163.652 332.634C168.158 327.339 167.517 319.366 162.222 314.86ZM151.326 327.662C149.561 326.16 149.347 323.503 150.849 321.738C152.352 319.973 155.009 319.759 156.774 321.261C158.539 322.763 158.753 325.421 157.251 327.186C155.748 328.951 153.091 329.165 151.326 327.662Z" fill="black" />
		<path d="M148.346 331.164C152.047 334.314 157.602 333.867 160.752 330.166C163.902 326.465 163.456 320.91 159.754 317.76C156.053 314.609 150.498 315.056 147.348 318.758C144.198 322.459 144.644 328.014 148.346 331.164Z" fill="white" />
		<path d="M308.639 113.718C310.623 115.406 313.6 115.167 315.288 113.183C316.977 111.199 316.737 108.222 314.753 106.534C312.77 104.845 309.793 105.085 308.104 107.069C306.416 109.052 306.655 112.029 308.639 113.718Z" fill="black" />
	</g>
	<g clip-path="url(#clip1)">
		<path d="M285.98 234.387C285.715 233.324 284.818 232.543 283.735 232.425L265.674 230.294C264.976 230.216 264.269 230.418 263.717 230.861C263.162 231.298 262.804 231.941 262.721 232.642C262.533 234.206 261.89 235.669 260.863 236.876C258.004 240.235 252.977 240.667 249.655 237.84C246.333 235.013 245.957 229.981 248.815 226.622C250.496 224.648 253.045 223.607 255.632 223.833C257.085 223.962 258.381 222.883 258.527 221.425L260.696 199.719C260.876 197.998 259.08 196.47 257.41 196.922L236.33 202.533C234.913 202.91 234.056 204.362 234.416 205.776C235.052 208.293 234.432 210.976 232.752 212.951C229.893 216.31 224.866 216.742 221.544 213.915C218.222 211.088 217.845 206.056 220.704 202.697C221.732 201.49 223.073 200.621 224.586 200.186C225.266 199.992 225.843 199.536 226.186 198.918C226.534 198.302 226.621 197.572 226.433 196.896L221.442 179.408C221.149 178.354 220.238 177.596 219.146 177.505C218.056 177.411 217.015 177.999 216.523 178.982L197.041 218.415C196.421 219.652 196.82 221.17 198.034 221.865C216.068 232.633 232.053 246.237 245.565 262.319C245.658 262.432 245.765 262.537 245.871 262.627C246.777 263.398 248.122 263.47 249.13 262.747L284.941 237.213C285.833 236.57 286.247 235.448 285.98 234.387V234.387Z" fill="url(#paint0_linear)" />
	</g>
	<path d="M178.01 79.1787C179.643 77.691 179.761 75.1611 178.274 73.528L154.03 46.9148C152.543 45.2816 150.013 45.1637 148.38 46.6514C146.747 48.1391 146.629 50.669 148.116 52.3021L169.666 75.9584L146.01 97.5079C144.377 98.9956 144.259 101.526 145.746 103.159C147.234 104.792 149.764 104.91 151.397 103.422L178.01 79.1787ZM48.1701 207.296C49.5126 152.255 58.091 119.908 77.1519 101.586C96.159 83.3164 126.68 77.9595 175.13 80.2174L175.503 72.226C126.963 69.964 93.254 75.0121 71.608 95.8189C50.0158 116.574 41.5171 151.975 40.1725 207.101L48.1701 207.296Z" fill="black" />
	<path d="M278.334 393.076C276.702 394.565 276.585 397.095 278.074 398.727L302.335 425.325C303.823 426.957 306.353 427.073 307.985 425.584C309.618 424.096 309.734 421.566 308.245 419.934L286.68 396.291L310.323 374.726C311.955 373.238 312.071 370.708 310.582 369.076C309.094 367.443 306.564 367.327 304.932 368.816L278.334 393.076ZM408.092 264.875C406.785 319.917 398.227 352.27 379.178 370.604C360.183 388.886 329.665 394.262 281.213 392.036L280.846 400.027C329.388 402.258 363.093 397.188 384.725 376.368C406.304 355.599 414.78 320.192 416.089 265.065L408.092 264.875Z" fill="black" />
	<defs>
		<linearGradient id="paint0_linear" x1="221.771" y1="242.125" x2="259.747" y2="197.506" gradientUnits="userSpaceOnUse">
			<stop stop-color="#FD5900" />
			<stop offset="1" stop-color="#FFDE00" />
		</linearGradient>
		<clipPath id="clip0">
			<rect width="322" height="322" fill="white" transform="translate(218.744 0.0446625) rotate(40.4012)" />
		</clipPath>
		<clipPath id="clip1">
			<rect width="90" height="91" fill="white" transform="translate(235.98 156) rotate(40.4012)" />
		</clipPath>
	</defs>
</svg>
