<svg width="288" height="335" viewBox="0 0 288 335" fill="none" xmlns="http://www.w3.org/2000/svg">
	<path d="M229.005 75.2963L243.233 50.5463C243.884 49.4146 244.058 48.0711 243.718 46.8111C243.377 45.5511 242.551 44.4778 241.419 43.8272L221.302 32.2706C220.17 31.6206 218.826 31.4468 217.566 31.7876C216.306 32.1283 215.233 32.9556 214.582 34.0875L200.377 58.8122C187.568 53.2871 174.017 49.673 160.158 48.0853V33.0413H170.142C171.448 33.0413 172.699 32.5227 173.622 31.5997C174.545 30.6766 175.064 29.4247 175.064 28.1194V4.92188C175.064 4.27542 174.937 3.63523 174.69 3.03792C174.443 2.4406 174.08 1.89787 173.623 1.44076C173.166 0.983648 172.623 0.62112 172.026 0.373903C171.429 0.126687 170.789 -0.000368915 170.142 8.04564e-07H117.132C116.486 -0.000368915 115.846 0.126687 115.248 0.373903C114.651 0.62112 114.108 0.983648 113.651 1.44076C113.194 1.89787 112.831 2.4406 112.584 3.03792C112.337 3.63523 112.21 4.27542 112.21 4.92188V28.1194C112.21 29.4247 112.729 30.6766 113.652 31.5997C114.575 32.5227 115.827 33.0413 117.132 33.0413H127.117V48.0713C113.257 49.6589 99.7067 53.2731 86.8978 58.7981L72.6919 34.0734C72.3702 33.5127 71.9413 33.0209 71.4294 32.626C70.9176 32.2312 70.3329 31.9411 69.7089 31.7724C69.0849 31.6036 68.4337 31.5595 67.7927 31.6426C67.1516 31.7257 66.5332 31.9343 65.9728 32.2566L45.855 43.8131C44.7236 44.4637 43.8969 45.537 43.5567 46.797C43.2165 48.057 43.3907 49.4006 44.0409 50.5322L58.2694 75.2963C33.9548 93.265 15.9301 118.448 6.76255 147.258C-2.40503 176.068 -2.24799 207.037 7.21128 235.753C16.6706 264.468 34.9497 289.467 59.4452 307.188C83.9408 324.91 113.404 334.45 143.637 334.45C173.871 334.45 203.334 324.91 227.829 307.188C252.325 289.467 270.604 264.468 280.063 235.753C289.522 207.037 289.679 176.068 280.512 147.258C271.344 118.448 253.32 93.265 229.005 75.2963V75.2963ZM220.666 43.2338L232.245 49.9022L220.86 69.7191C217.11 67.3228 213.254 65.0991 209.292 63.0478L220.666 43.2338ZM122.054 9.84375H165.22V23.1975H122.054V9.84375ZM136.96 33.0413H150.314V47.2641C148.101 47.16 145.887 47.0897 143.637 47.0897C141.387 47.0897 139.174 47.1572 136.96 47.2613V33.0413ZM55.0294 49.9022L66.6084 43.2506L77.9822 63.0478C74.0166 65.0953 70.1606 67.3191 66.4144 69.7191L55.0294 49.9022ZM143.637 324.523C117.175 324.523 91.3075 316.676 69.3052 301.975C47.303 287.273 30.1543 266.377 20.0279 241.93C9.90148 217.482 7.25208 190.58 12.4148 164.627C17.5774 138.673 30.3203 114.834 49.0319 96.1225C67.7436 77.4112 91.5835 64.6688 117.537 59.5067C143.491 54.3446 170.392 56.9945 194.84 67.1215C219.287 77.2484 240.183 94.3975 254.884 116.4C269.585 138.403 277.431 164.271 277.431 190.733C277.39 226.204 263.28 260.211 238.198 285.293C213.116 310.374 179.109 324.483 143.637 324.523V324.523Z" fill="black" />
	<path d="M240.41 246.105C250.144 229.166 255.241 209.96 255.187 190.423C255.134 170.886 249.932 151.709 240.106 134.823C240.041 134.654 239.966 134.49 239.881 134.331C239.794 134.199 239.7 134.073 239.6 133.951C229.916 117.66 216.268 104.084 199.927 94.4859C199.792 94.3752 199.651 94.2729 199.505 94.1794C199.345 94.0965 199.181 94.0233 199.013 93.96C182.074 84.2256 162.87 79.128 143.334 79.1808C123.798 79.2337 104.621 84.4351 87.7359 94.2609C87.565 94.3286 87.3978 94.4056 87.2353 94.4916C87.1059 94.5788 86.981 94.6727 86.8613 94.7728C70.5679 104.456 56.9889 118.104 47.3878 134.446C47.1546 134.712 46.9768 135.022 46.8647 135.357C37.1308 152.296 32.0337 171.501 32.087 191.038C32.1403 210.574 37.3422 229.751 47.1684 246.637C47.2342 246.806 47.3093 246.971 47.3934 247.132C47.4553 247.238 47.5481 247.317 47.6156 247.413C57.3006 263.743 70.9664 277.351 87.3366 286.968C87.4741 287.08 87.6178 287.184 87.7669 287.28C87.8906 287.35 88.0256 287.378 88.1522 287.44C105.121 297.214 124.371 302.332 143.953 302.276C163.535 302.22 182.755 296.993 199.668 287.123C199.789 287.063 199.918 287.038 200.036 286.968C200.154 286.898 200.284 286.785 200.41 286.687C216.741 276.982 230.344 263.296 239.948 246.907C240.024 246.797 240.12 246.715 240.188 246.597C240.272 246.438 240.347 246.274 240.41 246.105V246.105ZM199.221 275.839L192.895 265.058C192.235 263.932 191.155 263.114 189.891 262.784C188.628 262.455 187.286 262.641 186.159 263.301C185.033 263.961 184.215 265.041 183.885 266.305C183.556 267.568 183.741 268.91 184.402 270.037L190.735 280.842C177.68 287.704 163.28 291.623 148.548 292.323V279.765C148.548 278.46 148.029 277.208 147.106 276.285C146.183 275.362 144.931 274.843 143.626 274.843C142.321 274.843 141.069 275.362 140.146 276.285C139.223 277.208 138.704 278.46 138.704 279.765V292.323C124.169 291.625 109.956 287.794 97.0397 281.09L103.312 270.253C103.945 269.125 104.108 267.792 103.766 266.544C103.424 265.296 102.605 264.233 101.485 263.585C100.365 262.936 99.0345 262.755 97.782 263.081C96.5295 263.406 95.4555 264.211 94.7925 265.323L88.5291 276.148C76.5626 268.398 66.3446 258.236 58.5281 246.313L69.3197 239.991C70.4399 239.328 71.2519 238.248 71.5781 236.988C71.9043 235.728 71.7181 234.39 71.0602 233.267C70.4023 232.144 69.3264 231.327 68.0678 230.995C66.8091 230.664 65.4704 230.844 64.3444 231.497L53.5388 237.831C46.6756 224.776 42.7559 210.376 42.0553 195.643H54.6131C55.9185 195.643 57.1704 195.125 58.0934 194.202C59.0165 193.279 59.535 192.027 59.535 190.721C59.535 189.416 59.0165 188.164 58.0934 187.241C57.1704 186.318 55.9185 185.799 54.6131 185.799H42.0553C42.7493 171.261 46.5783 157.044 53.28 144.124L64.1194 150.393C65.2471 151.013 66.5729 151.167 67.8127 150.822C69.0525 150.476 70.1077 149.659 70.7521 148.545C71.3965 147.431 71.5789 146.108 71.2601 144.861C70.9414 143.614 70.1469 142.542 69.0469 141.874L58.2244 135.61C65.974 123.648 76.1335 113.434 88.0538 105.621L94.3791 116.412C95.0419 117.532 96.1214 118.344 97.3815 118.671C98.6416 118.997 99.9795 118.811 101.103 118.153C102.226 117.495 103.043 116.419 103.374 115.16C103.706 113.902 103.526 112.563 102.873 111.437L96.5391 100.631C109.594 93.7675 123.994 89.8487 138.727 89.1506V101.706C138.727 103.011 139.245 104.263 140.168 105.186C141.091 106.109 142.343 106.628 143.648 106.628C144.954 106.628 146.206 106.109 147.129 105.186C148.052 104.263 148.57 103.011 148.57 101.706V89.1506C163.109 89.8437 177.325 93.6718 190.246 100.373L183.963 111.215C183.629 111.774 183.409 112.395 183.317 113.04C183.225 113.686 183.262 114.343 183.426 114.974C183.59 115.605 183.877 116.197 184.272 116.716C184.666 117.234 185.16 117.67 185.724 117.996C186.288 118.323 186.912 118.534 187.558 118.618C188.205 118.701 188.861 118.655 189.49 118.483C190.119 118.311 190.707 118.016 191.221 117.614C191.734 117.213 192.163 116.713 192.482 116.145L198.745 105.308C210.712 113.06 220.93 123.224 228.746 135.149L217.955 141.472C217.394 141.797 216.903 142.229 216.51 142.745C216.117 143.26 215.829 143.848 215.664 144.475C215.499 145.102 215.459 145.755 215.547 146.397C215.635 147.039 215.849 147.658 216.177 148.217C216.504 148.776 216.939 149.265 217.456 149.656C217.973 150.047 218.563 150.332 219.19 150.494C219.818 150.657 220.471 150.694 221.113 150.603C221.755 150.512 222.372 150.295 222.93 149.965L233.738 143.632C240.599 156.687 244.518 171.087 245.219 185.819H232.661C231.356 185.819 230.104 186.338 229.181 187.261C228.258 188.184 227.739 189.436 227.739 190.741C227.739 192.046 228.258 193.298 229.181 194.221C230.104 195.144 231.356 195.663 232.661 195.663H245.219C244.523 210.198 240.695 224.41 233.994 237.327L223.158 231.055C222.028 230.402 220.684 230.223 219.423 230.56C218.161 230.897 217.086 231.721 216.432 232.851C215.778 233.981 215.6 235.325 215.937 236.586C216.273 237.847 217.097 238.923 218.228 239.577L229.05 245.841C221.302 257.806 211.142 268.023 199.221 275.839Z" fill="black" />
</svg>
